<svg width="20" height="20" viewBox="0 0 20 20" xmlns="http://www.w3.org/2000/svg"><title>Logo/Absa</title><g fill="none" fill-rule="evenodd"><path d="M1.837 13.803A9.016 9.016 0 0 0 9.997 19a9.016 9.016 0 0 0 8.161-5.197l-1.02-.475a7.891 7.891 0 0 1-7.139 4.54 7.891 7.891 0 0 1-7.138-4.54l-1.024.475zm15.564-6.496c.63 1.74.63 3.646 0 5.386l1.058.385a9.03 9.03 0 0 0 0-6.156l-1.058.385zm-14.807 0L1.54 6.922a9.03 9.03 0 0 0 0 6.156l1.058-.385a7.892 7.892 0 0 1 0-5.386h-.005zm9.468 2.277c-.403-.007-.656-.014-.656-.232 0-.286.171-.347.69-.347.349.007.697.05 1.037.13l-.075-.778a3.86 3.86 0 0 0-1.03-.157c-1.133 0-1.57.41-1.57 1.181 0 .744.455.934 1.228.948.499.007.758-.006.758.32 0 .287-.226.348-.71.348a3.904 3.904 0 0 1-1.2-.17l.075.777c.384.14.791.207 1.2.198 1.208 0 1.583-.41 1.583-1.146 0-.927-.607-1.057-1.33-1.07v-.002zm3.16-1.384a3.91 3.91 0 0 0-1.065.157l-.075.777c.341-.076.688-.12 1.037-.129.491 0 .69.041.69.436v.11l-.655.033c-.728.04-1.33.143-1.33 1.07 0 .736.374 1.146 1.507 1.146.482-.008.96-.089 1.418-.239v-2.18c0-.77-.43-1.182-1.527-1.182V8.2zm-10.578 0a3.91 3.91 0 0 0-1.064.157l-.075.777c.34-.076.688-.12 1.037-.129.49 0 .69.041.69.436v.11l-.656.033c-.727.04-1.33.163-1.33 1.07 0 .736.375 1.146 1.508 1.146.482-.008.96-.089 1.418-.239v-2.18c0-.77-.429-1.182-1.528-1.182V8.2zm3.779.001a3.353 3.353 0 0 0-.676.085V6.402l-.941.102v5.057c.45.148.918.229 1.391.239 1.132 0 1.8-.383 1.8-1.8S9.33 8.2 8.424 8.2zm7.385 2.767c-.15.028-.302.044-.454.048-.41 0-.58-.13-.58-.41 0-.293.164-.34.505-.363l.532-.033-.003.758zm-10.577 0c-.15.028-.302.044-.455.048-.409 0-.579-.13-.579-.41 0-.293.164-.34.505-.363l.532-.033-.003.758zm3.039.031a2.16 2.16 0 0 1-.526-.068V9.074c.172-.043.349-.067.526-.069.511 0 .757.232.757 1 0 .767-.246.999-.757.999v-.005zm9.888-4.802A9.016 9.016 0 0 0 9.998 1a9.016 9.016 0 0 0-8.16 5.197l1.02.475a7.891 7.891 0 0 1 7.138-4.54 7.891 7.891 0 0 1 7.138 4.54l1.024-.475z" fill="#D03"/></g></svg>
