<svg width="49" height="20" viewBox="0 0 49 20" xmlns="http://www.w3.org/2000/svg" xmlns:xlink="http://www.w3.org/1999/xlink"><title>Logo/Amex</title><defs><path id="a" d="M0 12.962h47.323V0H0z"/></defs><g transform="translate(.55 3.5)" fill="none" fill-rule="evenodd"><path d="M8.675 5.662h-1.48V.028h2.361l1.267 3.51 1.26-3.512h2.33v5.637h-1.451V1.852l-.08-.015-1.396 3.823h-1.358L8.75 1.886l-.075.011v3.765zM44.908 3.4V.026h1.49v5.633H44.58l-2.326-3.523V5.65h-1.49V.027h1.9M26.716 9.678c.604 0 1.183.021 1.76-.01.284-.015.441-.234.434-.53-.008-.297-.179-.501-.46-.515-.569-.028-1.14-.009-1.734-.009v1.064zm2.262 1.255l1.818 2.007h-1.88l-1.681-1.945h-.526v1.947h-1.507V7.28c.953-.001 2.205-.004 3.158.003.222.002.45.02.666.068.86.192 1.366.796 1.42 1.67.05.81-.406 1.504-1.185 1.803l-.283.109zM22.84 1.33v1.076c.59 0 1.161.022 1.728-.01.29-.016.47-.224.462-.54-.007-.3-.184-.502-.46-.517-.567-.03-1.138-.01-1.73-.01m4.08 4.332h-1.883l-1.673-1.937h-.544V5.65h-1.497V.043c.061-.013.125-.037.188-.037 1.08 0 2.16-.017 3.239.009.93.022 1.598.576 1.776 1.41.197.92-.25 1.762-1.122 2.109l-.303.12 1.82 2.007M11.922 7.309v1.277H8.72v.866h3.108v1.323h-3.11v.873h3.206v1.292H7.198V7.309zM31.228 12.94V7.306h4.722v1.278h-3.185v.872h3.109v1.305H32.77v.89h3.183v1.289zM20.313 4.367v1.282h-4.717V.03h4.707v1.267h-3.184v.89h3.115v1.3h-3.116v.879zM4.189 3.246l-.76-1.828-.757 1.828h1.517zM6.91 5.665H5.203l-.48-1.11H2.14L1.665 5.66H0L2.466.023H4.44l2.471 5.642zM36.242 3.234h1.51l-.756-1.816-.754 1.816M36.036.016h1.968l2.468 5.635h-1.71l-.469-1.095h-2.587l-.472 1.102h-1.666L36.036.016M42.297 12.938v-1.281H45.115c.087 0 .176.003.262-.01.25-.038.423-.173.415-.443-.007-.268-.177-.412-.436-.418-.496-.012-.993.005-1.488-.011-1.242-.042-1.935-.857-1.734-2.042.126-.737.893-1.427 1.834-1.427h3.24l-.585 1.29H45.7c-.516 0-1.032-.005-1.547.003-.335.005-.526.166-.53.422-.002.255.19.433.517.442.438.013.876.003 1.314.006 1.167.006 1.796.525 1.863 1.536.068 1.025-.553 1.833-1.634 1.915-1.11.083-2.232.018-3.387.018M16.557 10.059l2.517 2.879h-1.98l-1.506-1.76-1.526 1.775h-1.929l2.516-2.863-2.453-2.78h1.981l1.433 1.67 1.44-1.678h1.929l-2.422 2.757M20.786 9.777c.618 0 1.219.028 1.815-.012.299-.02.43-.29.418-.585-.013-.31-.175-.526-.492-.564-.24-.03-.485-.018-.728-.02-.335-.003-.67 0-1.013 0v1.18zm-.026 1.348v1.82h-1.49V7.281c.963-.002 2.23-.004 3.193.001.204.001.41.014.61.055.947.2 1.527.961 1.483 1.933-.044.968-.683 1.703-1.637 1.807-.549.06-1.107.036-1.66.048-.145.003-.29 0-.499 0zM34.221.052v1.293h-.654c-.272 0-.544.007-.816 0-1.488-.046-1.737.974-1.55 2.005.112.626.586.988 1.255 1.015.319.013.639.002 1.037.002l-.59 1.27c-1.876.261-3.205-.751-3.267-2.535-.01-.293-.01-.591.035-.879.193-1.206.93-2.004 2.136-2.153.783-.097 1.586-.018 2.414-.018" fill="#0B79BF"/><mask id="b" fill="#fff"><use xlink:href="#a"/></mask><path fill="#0B79BF" mask="url(#b)" d="M27.353 5.662h1.471V.03h-1.471zM36.787 12.938v-1.281h2.817c.088 0 .176.003.262-.01.251-.038.423-.173.416-.443-.007-.268-.178-.412-.436-.418-.496-.012-.993.005-1.489-.011-1.241-.042-1.935-.857-1.733-2.042.126-.737.892-1.427 1.834-1.427h3.24l-.586 1.29h-.922c-.515 0-1.031-.005-1.547.003-.334.005-.526.166-.529.422-.003.255.19.433.517.442.437.013.876.003 1.313.006 1.168.006 1.796.525 1.863 1.536.068 1.025-.553 1.833-1.633 1.915-1.111.083-2.233.018-3.387.018"/></g></svg>
