<svg width="25" height="20" viewBox="0 0 25 20" xmlns="http://www.w3.org/2000/svg"><title>Logo/Capitec</title><g fill="none" fill-rule="evenodd"><path d="M16.102 16h-9c-3.24 0-5.867-2.686-5.867-6 0-3.303 2.61-5.983 5.837-6v3.508c0 1.53 1.212 2.769 2.708 2.769h4.155c1.197 0 2.167.992 2.167 2.215V16z" fill="#004570"/><path d="M9.299 4h8.334c3.24 0 5.868 2.686 5.868 6 0 3.043-2.216 5.558-5.088 5.947v-3.405c0-1.53-1.213-2.77-2.708-2.77h-4.24c-1.197 0-2.166-.991-2.166-2.215V4z" fill="#E83735"/></g></svg>
