<svg width="21" height="20" viewBox="0 0 21 20" xmlns="http://www.w3.org/2000/svg"><title>Logo/Diners</title><g fill-rule="nonzero" fill="none"><path d="M11.955 16.97c4.049.02 7.744-3.337 7.744-7.42C19.7 5.085 16.004 2 11.955 2H8.47C4.373 1.999 1 5.086 1 9.55c0 4.084 3.373 7.44 7.47 7.42h3.485z" fill="#0079BE"/><path d="M8.487 2.619c-3.745 0-6.779 3.068-6.78 6.853.001 3.784 3.035 6.85 6.78 6.852 3.745-.001 6.78-3.068 6.78-6.852 0-3.785-3.035-6.852-6.78-6.853zM4.19 9.472a4.35 4.35 0 0 1 2.758-4.054v8.106A4.347 4.347 0 0 1 4.19 9.472zm5.834 4.054V5.418a4.347 4.347 0 0 1 2.76 4.054 4.348 4.348 0 0 1-2.76 4.054z" fill="#FFF"/></g></svg>
