<svg width="18" height="20" viewBox="0 0 18 20" xmlns="http://www.w3.org/2000/svg"><title>Logo/FNB</title><g fill="none" fill-rule="evenodd"><path d="M9.045 1a8.897 8.897 0 1 1 0 17.794A8.897 8.897 0 0 1 9.045 1" fill="#FFF" fill-rule="nonzero"/><path d="M1.586 9.902a7.462 7.462 0 1 1 14.921 0c.002.255-.01.51-.037.762a7.676 7.676 0 0 1-14.847 0 6.589 6.589 0 0 1-.037-.762" fill="#F59C25" fill-rule="nonzero"/><path d="M8.42 11.819l-.352-.353a8.068 8.068 0 0 0-2.223-.352l2.501 2.502.074-1.797zm-1.776-1.774L5.056 8.457a11.382 11.382 0 0 0-1.34-.082c-.819-.008-1.636.08-2.435.264.024-.15.053-.299.082-.442A10.705 10.705 0 0 1 5.62 7.033l.397.405.53.53a8.735 8.735 0 0 1 3.78-.856l-.226-.3c-.265-.015-.508-.028-.77-.028a8.598 8.598 0 0 0-2.539.376l-.487-.487a12.03 12.03 0 0 0-1.032-.053 10.752 10.752 0 0 0-3.605.556c.06-.157.119-.3.18-.45a10.752 10.752 0 0 1 2.996-1.528l-.225-.233a9.881 9.881 0 0 1 7.166-.675c.317.317.614.652.892 1.004.09-.07.185-.128.29-.196 1.18.35 2.292.9 3.286 1.625.06.15.12.291.18.45a10.826 10.826 0 0 0-2.875-.548c.106.196.21.381.3.585 1 .19 1.97.526 2.874.995.032.143.06.291.082.442a10.453 10.453 0 0 0-2.433-.264h-.045c.067.188.128.376.188.569.82.14 1.62.376 2.383.704v.315a10.819 10.819 0 0 0-3.46.172 12.907 12.907 0 0 0-.741-.458l-1.482 1.49-1.499 1.499.143 3.684a7.361 7.361 0 0 1-1.63 0l.068-1.556.022-.59-3.084-3.087h-.061a8.92 8.92 0 0 0-1.633.24 3.325 3.325 0 0 1-.156-.367 8.293 8.293 0 0 1 1.207-.53l-.427-.426c-.135-.02-.264-.045-.405-.06-.14-.016-.307-.038-.458-.053a13.424 13.424 0 0 0-.929-.038c-.398 0-.795.022-1.19.067v-.074-.241a10.588 10.588 0 0 1 3.49-.832l1.31 1.31c.218-.036.435-.065.652-.081v.005zm3.386-1.204l1.453 1.445.823-.823a7.721 7.721 0 0 0-2.382-.718l.106.096zm1.146 1.752L9.058 8.475l-.114-.106a7.772 7.772 0 0 0-2.366.988l.68.68a5.21 5.21 0 0 1 .966.016c.12.392.208.793.265 1.2L9.5 12.278l1.676-1.686z" fill="#000100"/><path d="M1.644 10.635a7.637 7.637 0 0 0 14.802 0c.151-.024.3-.037.442-.053a7.872 7.872 0 0 1-15.686 0c.143.016.29.03.442.053" fill="#0B999A" fill-rule="nonzero"/></g></svg>
