<?xml version="1.0" encoding="UTF-8"?>
<svg width="20px" height="20px" viewBox="0 0 20 20" version="1.1" xmlns="http://www.w3.org/2000/svg" xmlns:xlink="http://www.w3.org/1999/xlink">
    <title>Investec</title>
    <g id="Investec" stroke="none" stroke-width="1" fill="none" fill-rule="evenodd">
        <path d="M10.3056653,9.66556072 L10.3056653,2 L9.68379447,2 L9.68379447,3.64565362 C6.76132463,3.73063529 4.25309159,5.7666282 3.54940711,8.62508295 L5.1831357,8.62508295 C5.6586984,6.43916177 7.47376147,4.80781104 9.68379447,4.57996019 L9.68379447,9.64432648 L2,9.64432648 L2,10.3662906 L3.40184453,10.3662906 C3.65932666,13.6959008 6.36958705,16.2931064 9.68379447,16.3861977 L9.68379447,18 L10.3056653,18 L10.3056653,10.3556735 L14.9749671,10.3556735 C14.8779933,12.6458424 13.3705389,14.6308653 11.201581,15.3244857 L11.201581,16.3012608 C14.1430654,15.8192676 16.3738665,13.3702968 16.5981555,10.3769078 L18,10.3769078 L18,9.63370936 L10.3056653,9.63370936 L10.3056653,9.66556072 Z M9.9321267,15 C7.16992722,14.703432 5.06604976,12.5706021 5,10 L10,10 L9.9321267,15 Z M14.45,8.91341991 L16,8.91341991 C15.3670717,6.35667934 13.4123641,4.43581949 11,4 L11,5.00649351 C12.7090602,5.59165836 14.0055767,7.11002993 14.41,9" id="Shape" fill="#6695CE" fill-rule="nonzero"></path>
    </g>
</svg>