<svg width="26" height="20" viewBox="0 0 26 20" xmlns="http://www.w3.org/2000/svg"><title>Logo/Mastercard</title><g fill-rule="nonzero" fill="none"><path d="M6.387 17.908c0-.328.221-.598.582-.598.345 0 .578.258.578.598 0 .34-.233.599-.578.599-.36 0-.582-.27-.582-.599zm1.553 0v-.934h-.417v.227c-.132-.169-.333-.274-.606-.274-.538 0-.959.41-.959.981 0 .572.421.982.96.982.272 0 .473-.106.605-.274v.227h.417v-.935zm14.088 0c0-.328.221-.598.582-.598.346 0 .578.258.578.598 0 .34-.232.599-.578.599-.36 0-.582-.27-.582-.599zm1.553 0v-1.685h-.417v.978c-.132-.169-.333-.274-.606-.274-.537 0-.959.41-.959.981 0 .572.422.982.96.982.272 0 .473-.106.605-.274v.227h.417v-.935zm-10.466-.618c.268 0 .441.165.485.454h-.995c.045-.27.213-.454.51-.454zm.008-.363c-.562 0-.955.398-.955.981 0 .595.41.982.983.982.289 0 .553-.07.786-.262l-.204-.301a.932.932 0 0 1-.558.196c-.269 0-.513-.122-.573-.458h1.423a1.88 1.88 0 0 0 .009-.157c-.004-.583-.374-.981-.91-.981zm5.034.981c0-.328.221-.598.582-.598.345 0 .578.258.578.598 0 .34-.233.599-.578.599-.36 0-.582-.27-.582-.599zm1.553 0v-.934h-.417v.227c-.133-.169-.333-.274-.606-.274-.537 0-.959.41-.959.981 0 .572.422.982.96.982.272 0 .472-.106.605-.274v.227h.417v-.935zm-3.907 0c0 .568.405.982 1.023.982.289 0 .481-.063.69-.223l-.2-.328a.857.857 0 0 1-.503.168c-.333-.004-.577-.239-.577-.599s.244-.594.577-.598c.181 0 .346.058.502.168l.2-.329c-.208-.16-.4-.222-.69-.222-.617 0-1.022.414-1.022.981zm5.375-.981c-.24 0-.397.11-.505.274v-.227h-.414v1.869h.418v-1.048c0-.31.136-.481.409-.481.084 0 .172.011.26.047l.13-.383a.908.908 0 0 0-.298-.051zm-11.176.195c-.2-.129-.477-.195-.782-.195-.486 0-.799.227-.799.598 0 .305.233.493.662.552l.197.027c.229.031.337.09.337.196 0 .144-.153.227-.438.227-.288 0-.497-.09-.637-.196l-.197.316c.229.165.518.243.83.243.554 0 .875-.254.875-.61 0-.329-.253-.5-.67-.56l-.196-.027c-.18-.023-.326-.058-.326-.184 0-.137.137-.219.365-.219.245 0 .482.09.598.16l.18-.328zm5.38-.195c-.241 0-.398.11-.506.274v-.227h-.413v1.869h.417v-1.048c0-.31.136-.481.409-.481.084 0 .173.011.26.047l.13-.383a.908.908 0 0 0-.298-.051zm-3.559.047h-.682v-.568h-.421v.568h-.389v.371h.389v.853c0 .434.173.692.666.692.18 0 .389-.055.521-.145l-.12-.348a.787.787 0 0 1-.37.106c-.208 0-.276-.126-.276-.313v-.845h.682v-.371zM5.59 18.843V17.67c0-.442-.289-.74-.754-.743-.245-.004-.497.07-.674.332a.708.708 0 0 0-.634-.332.64.64 0 0 0-.561.277v-.23h-.418v1.869h.421v-1.036c0-.325.185-.497.47-.497.277 0 .417.176.417.493v1.04h.421v-1.036c0-.325.193-.497.47-.497.284 0 .42.176.42.493v1.04h.422z" fill="#231F20"/><path fill="#FF5F00" d="M16.2 13.8H9.88V2.728h6.32z"/><path d="M10.286 8.263c0-2.246 1.078-4.246 2.758-5.535A7.308 7.308 0 0 0 8.58 1.222c-3.989 0-7.221 3.153-7.221 7.041 0 3.89 3.232 7.042 7.22 7.042a7.308 7.308 0 0 0 4.464-1.506c-1.68-1.289-2.758-3.29-2.758-5.536" fill="#EB001B"/><path d="M24.721 8.263c0 3.89-3.232 7.042-7.22 7.042a7.31 7.31 0 0 1-4.464-1.506c1.68-1.289 2.758-3.29 2.758-5.536 0-2.246-1.078-4.246-2.758-5.535A7.31 7.31 0 0 1 17.5 1.222c3.989 0 7.221 3.153 7.221 7.041" fill="#F79E1B"/></g></svg>
