<svg width="15" height="20" viewBox="0 0 15 20" xmlns="http://www.w3.org/2000/svg"><title>Logo/Standard</title><path d="M9.938 15.08l-1.829-3.791a1.718 1.718 0 0 0-.372-.498c.567.191 1.243.655 2.336.655 1.046 0 1.934-.658 2.287-1.005-.198 1.98-1.095 3.51-2.422 4.638zm-.251-9.983c-1.425-.08-2.21-.86-3.403-.926a3.57 3.57 0 0 0-1.258.16L3.95 3.583l.03-.003c.934-.141 2.083-.26 3.33-.26 2.018 0 3.775.308 4.771.516l.054.602c-.58.336-1.348.722-2.448.658zm-3.014 11.24l-.313-.15c-2.22-1.138-3.82-3.038-4.089-5.69-.073-.728-.037-2.06.042-3.415l4.36 9.255zM12.69 2.634c-.93-.207-2.98-.62-5.382-.62-2.4 0-4.449.413-5.378.62-.343.074-.557.389-.59.767-.137 1.565-.46 5.613-.295 7.235C1.434 14.48 4.133 16.89 7.309 18c.411-.144.813-.307 1.205-.494l-5.408-11.2-.53-.418a.354.354 0 0 1-.132-.277V3.87c0-.096.071-.175.162-.175a.16.16 0 0 1 .098.033l1.309 1.046a.355.355 0 0 1 .128.28l.001.693c.607-.367 1.358-.53 2.107-.487 1.191.066 2.013.91 3.438.989 1.153.064 1.943-.36 2.53-.707.064.888.123 1.871.154 2.758l.018.879c-.65.562-1.711 1.054-2.316 1.054-1.004 0-1.685-.674-2.633-.674a2.14 2.14 0 0 0-1.248.402l3.353 6.981c2.133-1.327 3.74-3.407 4.03-6.307.168-1.622-.159-5.67-.292-7.235-.034-.378-.25-.693-.592-.767z" fill="#024A86" fill-rule="evenodd"/></svg>
