<svg width="45" height="20" viewBox="0 0 45 20" xmlns="http://www.w3.org/2000/svg"><title>Logo/Visa</title><g fill-rule="nonzero" fill="none"><path fill="#00579F" d="M19.378 16.262h-3.436l2.15-12.38h3.436zM31.837 4.185a9.02 9.02 0 0 0-3.082-.527c-3.394 0-5.784 1.686-5.8 4.096-.027 1.778 1.712 2.765 3.013 3.358 1.33.606 1.782 1.002 1.782 1.542-.014.829-1.075 1.211-2.064 1.211-1.372 0-2.108-.197-3.225-.658l-.452-.198-.481 2.779c.806.342 2.29.645 3.833.659 3.606 0 5.953-1.66 5.981-4.228.014-1.41-.905-2.49-2.885-3.372-1.202-.566-1.938-.948-1.938-1.528.014-.526.623-1.066 1.98-1.066a6.208 6.208 0 0 1 2.56.474l.31.131.468-2.673zM36.405 11.877l1.372-3.464c-.014.026.282-.725.452-1.185l.24 1.066s.651 2.964.792 3.583h-2.856zm4.242-7.995H37.99c-.82 0-1.443.224-1.797 1.028l-5.104 11.352h3.606l.721-1.857h4.413c.098.435.41 1.857.41 1.857h3.182l-2.773-12.38zM13.071 3.882l-3.366 8.442-.367-1.712C8.715 8.637 6.764 6.49 4.586 5.423l3.083 10.826h3.634l5.402-12.367h-3.634z"/><path d="M6.58 3.882H1.05l-.056.25c4.313 1.028 7.17 3.504 8.344 6.48L8.136 4.924c-.198-.79-.807-1.014-1.556-1.04z" fill="#FAA61A"/></g></svg>
